# xmcd CD database file
#
# Track frame offsets:
#	150
#	22645
#	51605
#	81653
#	103618
#	135490
#	156600
#	171865
#	195172
#	219708
#	248925
#	267695
#	285208
#
# Disc length: 3958 seconds
#
# Revision: 0
# Processed by: cddbd v1.5.1PL2 Copyright (c) Steve Scherf et al.
# Submitted via: CDex 1.51
#
DISCID=bd0f740d
DTITLE=Mari Watanabe - Old Friends
DYEAR=2005
DGENRE=Jazz
TTITLE0=Old Friends
TTITLE1=Here Comes Tuba Fats
TTITLE2=St. Louis Blues
TTITLE3=Georgia On My Mind
TTITLE4=His Eye Is On The Sparrow
TTITLE5=Sweet Georgia Brown
TTITLE6=The Entertainer
TTITLE7=After Hours
TTITLE8=Stompin' At The Savoy
TTITLE9=Pet The Cat
TTITLE10=Mixed Children
TTITLE11=Jammin'
TTITLE12=Time To Go To Sleep
EXTD=YEAR: 2005
EXTT0=
EXTT1=
EXTT2=
EXTT3=
EXTT4=
EXTT5=
EXTT6=
EXTT7=
EXTT8=
EXTT9=
EXTT10=
EXTT11=
EXTT12=
PLAYORDER=
